<?xml version="1.0" encoding="utf-8"?>
<!-- Generator: Adobe Illustrator 22.1.0, SVG Export Plug-In . SVG Version: 6.00 Build 0)  -->
<svg version="1.1" id="Layer_1" xmlns="http://www.w3.org/2000/svg" xmlns:xlink="http://www.w3.org/1999/xlink" x="0px" y="0px"
	 viewBox="0 0 308 284.9" style="enable-background:new 0 0 308 284.9;" xml:space="preserve">
<style type="text/css">
	.st0{fill:url(#SVGID_1_);}
</style>
<linearGradient id="SVGID_1_" gradientUnits="userSpaceOnUse" x1="21.3989" y1="270.925" x2="277.7966" y2="14.5274">
	<stop  offset="0" style="stop-color:#225D38"/>
	<stop  offset="1" style="stop-color:#418154"/>
</linearGradient>
<path class="st0" d="M230.1,284.8c-3.9,0-7.9,0.3-11.7-0.1c-3.9-0.5-7.7-1.4-11.5-2.7c-4.6-1.5-9.1-3.1-13.4-5.2
	c-4.3-2.2-8.2-5-12.2-7.7c-2.6-1.8-5.2-3.7-7.5-5.9c-3.9-3.6-7.6-7.4-11.4-11.1c-3.8-3.6-7.7-7.1-11.5-10.7
	c-2.8-2.7-5.4-5.5-8.1-8.2c-3.6-3.6-7.2-7.1-10.9-10.7c-5-4.8-10.1-9.5-15.1-14.4c-4.3-4.2-8.2-9-12.9-12.8c-3.5-2.9-6.7-6.1-10-9.1
	c-7-6.5-14-13.1-20.9-19.7c-2-2-3.8-4.2-5.8-6.3c-1.7-1.7-3.6-3.2-5.4-4.8c-3.4-3-4.9-7.1-5.9-11.2c-0.5-2,0.7-4.4,1.2-6.6
	c1-4.6,4.3-7.7,7.5-10.7c3.4-3.2,7-6.2,10.4-9.4c3.4-3.3,6.6-6.8,10-10c2.3-2.2,4.9-4.1,7.2-6.3c2.1-2,4-4.2,6-6.3
	c2.4-2.4,4.8-4.7,7.2-7c3.3-3.3,6.7-6.7,10-9.9c1.3-1.3,2.8-2.4,4.2-3.7c3.2-3,6.3-6.2,9.5-9.2c5.8-5.4,11.7-10.7,17.4-16.2
	c3.2-3.1,6.1-6.5,9.3-9.7c3-3,6.2-5.9,9.3-8.8c3.8-3.7,7.4-7.6,11.5-10.9c4.6-3.8,9.1-7.7,14.9-9.7c2.9-1,5.4-3,8.3-4.1
	c4.6-1.7,9-4,14.2-4c3,0,6-1.3,9.1-1.4c5-0.2,10.1-0.2,15.1,0.1c3.9,0.2,7.8,1,11.7,1.7c1.8,0.3,3.5,1,5.1,1.6
	c3.2,1.3,6.5,2.5,9.6,4c3.4,1.6,6.6,3.5,9.8,5.5c2.7,1.7,5.4,3.7,7.7,5.9c2.9,2.6,5.5,5.5,8.1,8.5c2.5,2.9,5.1,5.7,7.1,8.9
	c2.1,3.5,3.6,7.5,5.2,11.3c1.1,2.5,2,5,2.8,7.6c0.6,1.8,1,3.6,1.2,5.5c0.5,4,1.4,8,1.3,12c-0.1,6.1-0.6,12.2-1.6,18.2
	c-0.5,3.3-2.7,6.4-3.3,9.7c-0.7,3.7-2.5,6.7-4.3,9.8c-2.4,4-4.6,8.3-7.6,11.8c-5.1,6-10.8,11.6-16.3,17.2c-2.2,2.2-2.1,4.4,0.1,6.6
	c5,4.8,10.3,9.3,14.6,14.6c4.2,5,7.5,10.8,10.9,16.4c1.2,2,1.5,4.5,2.3,6.7c1,2.9,2.1,5.8,3.1,8.7c0.3,0.8,0.6,1.5,0.7,2.3
	c0.9,7.5,2.2,15,1.3,22.6c-0.7,5.3-2,10.5-3.2,15.7c-0.6,2.5-1.3,5.1-2.4,7.5c-1.2,2.8-2.8,5.4-4.4,7.9c-1.9,2.8-4.1,5.5-6.2,8.2
	c-3.5,4.4-7.3,8.5-12,11.6c-4,2.7-7.8,5.8-12.1,8c-4.5,2.4-9.4,4.2-14.4,5.7C245.5,284.1,237.9,285.4,230.1,284.8z M116.2,34.6
	c-1.2-3.1-2.8-6.2-4.8-8.8c-3.3-4.2-6.3-8.7-11-11.6c-3-1.9-5.7-4.2-8.7-6.1c-2-1.3-4.3-2.1-6.4-3.1c-2.4-1.1-4.8-2.6-7.4-3.1
	C73,1.1,68.1,0.5,63.1,0.3c-4.4-0.2-8.8,0-13.1,0.5c-2.9,0.4-5.9,1.3-8.6,2.4c-4.5,1.8-9.2,3.5-13.3,6.2c-4.6,3.1-8.8,7-12.7,11
	c-2.7,2.8-5,6.1-7,9.4c-2.7,4.7-5,9.6-6.2,15C1.3,48.9,0.1,53,0.1,57C0,96,0,135,0,174c0,14.9,0,29.9,0.5,44.8
	c0.2,5.6-0.8,11.1,0.5,16.8c1.5,6.3,3.4,12.4,6.3,18c2.4,4.6,5.8,8.9,9.4,12.6c6.5,6.6,13.9,12.1,22.9,15c3.6,1.1,7.2,3,10.8,3.2
	c8.3,0.4,16.6,1.1,25-1c6.6-1.7,12.8-4,18.3-7.6c10-6.5,18.1-14.7,22.8-26.1c1.7-4.1,3.7-8,4.2-12.6c0.4-3,0.4-4.9-2.4-7.1
	c-4.1-3.1-7.4-7.1-11.1-10.7c-8.4-8.1-16.9-16.1-25.3-24.2c-10.1-9.7-20-19.5-30.2-28.9c-5.6-5.1-8.8-11.2-10.3-18.4
	c-0.5-2.2-1.2-4.6-0.9-6.8c0.5-3.6,1.4-7.3,2.7-10.7c1.8-5.1,5.4-9.1,9.1-12.8c5.8-5.6,11.9-10.7,17.8-16.2
	c5.7-5.4,11.3-11,16.9-16.5c3.9-3.8,7.7-7.6,11.7-11.3c3.6-3.5,7.2-6.9,10.8-10.3c4.1-3.9,8.2-7.9,12.5-12.1
	C120,45.4,118.3,39.9,116.2,34.6z"/>
</svg>
