<svg width="150" height="150" viewBox="0 0 150 150" fill="none" xmlns="http://www.w3.org/2000/svg">
<g clip-path="url(#clip0_8_1379)">
<path d="M48.9703 120.441C48.9703 125.294 44.9997 129.706 39.7056 129.706C34.4115 129.706 30.4409 125.735 30.4409 120.441V80.7353C30.4409 75.8823 34.4115 71.4706 39.7056 71.4706C44.9997 71.4706 48.9703 75.4412 48.9703 80.7353V120.441Z" fill="white"/>
<path d="M75.4413 131.029C75.4413 135.882 71.4707 140.294 66.1766 140.294C60.8824 140.294 57.353 136.324 57.353 131.029V70.5883C57.353 65.7353 61.3236 61.3235 66.6177 61.3235C71.9119 61.3235 75.8824 65.2941 75.8824 70.5883V131.029H75.4413Z" fill="white"/>
<path d="M22.0587 111.618C22.0587 116.471 18.0881 120.882 12.794 120.882C7.49989 120.882 3.5293 116.912 3.5293 111.618V90C3.5293 85.1471 7.49989 80.7353 12.794 80.7353C18.0881 80.7353 22.0587 85.1471 22.0587 90V111.618Z" fill="white"/>
<path d="M101.911 140.735C101.911 145.588 97.9409 150 92.6468 150C87.7938 150 83.8232 145.588 83.8232 140.735V60.4412C83.8232 55.5883 87.7938 51.1765 93.0879 51.1765C97.9409 51.1765 102.353 55.1471 102.353 60.4412V140.735H101.911Z" fill="white"/>
<path d="M131.029 136.765C129.265 136.765 127.941 136.324 126.176 135.882L115.147 132.353C113.382 131.912 112.059 129.706 112.941 127.941C113.382 126.176 115.588 124.853 117.353 125.735L128.824 129.265C131.029 130.147 133.676 129.706 135.882 127.941C138.088 126.618 138.971 123.971 138.971 121.765V48.0882C138.971 44.5588 136.765 41.4706 133.676 40.5882L25.5882 7.94119C23.3823 7.05884 20.7353 7.50001 18.5294 8.82354C16.7647 10.5882 15.4411 12.7941 15.4411 15.4412V66.1765C15.4411 68.3824 13.6764 69.7059 11.9117 69.7059C9.70585 69.7059 8.38232 67.9412 8.38232 66.1765V15.4412C8.38232 10.5882 10.5882 6.17648 14.5588 3.52943C18.5294 0.441191 23.3823 1.50352e-05 27.7941 1.32354L135.441 33.9706C141.618 35.7353 146.029 41.9118 146.029 48.5294V122.206C146.029 127.059 143.824 131.471 139.853 134.559C137.206 135.441 134.118 136.765 131.029 136.765Z" fill="white"/>
</g>
<defs>
<clipPath id="clip0_8_1379">
<rect width="150" height="150" fill="white"/>
</clipPath>
</defs>
</svg>
