<svg width="150" height="150" viewBox="0 0 150 150" fill="none" xmlns="http://www.w3.org/2000/svg">
<g clip-path="url(#clip0_426_13081)">
<ellipse cx="41.7509" cy="61.8797" rx="35.0401" ry="35.0401" transform="rotate(90 41.7509 61.8797)" fill="#FDBE1B"/>
<path fill-rule="evenodd" clip-rule="evenodd" d="M119.269 122.058H52.4561V122.057C52.3939 122.058 52.3317 122.058 52.2695 122.058C37.7375 122.058 25.957 110.278 25.957 95.7456C25.957 81.3627 37.4971 69.6751 51.8232 69.4368C57.3487 55.8626 70.6732 46.2935 86.2327 46.2935C104.06 46.2935 118.953 58.8546 122.544 75.6088C133.964 77.1223 142.776 86.8981 142.776 98.7321C142.776 111.05 133.229 121.138 121.13 121.999V122.058H119.631C119.57 122.059 119.51 122.059 119.45 122.059C119.389 122.059 119.329 122.059 119.269 122.058Z" fill="white"/>
</g>
<defs>
<clipPath id="clip0_426_13081">
<rect width="150" height="150" fill="white"/>
</clipPath>
</defs>
</svg>
